# xmcd
#
# Track frame offsets: 
#        150
#        22825
#        43625
#        62863
#        90115
#        107700
#        125010
#        147143
#        168645
#        187733
#
# Disc length: 2747 seconds
#
# Revision: 0
# Processed by: cddbd v1.5.2PL0 Copyright (c) Steve Scherf et al.
# Submitted via: ExactAudioCopy v1.0b3
#
DISCID=7a0ab90a
DTITLE=Various Artist - Tinh Khuc Mua Xuan
DYEAR=1989
DGENRE=
TTITLE0=Duy Khanh - Xuan nay con khong ve
TTITLE1=Huong Lan - Mua Xuan dau tien
TTITLE2=Si Phu - Tinh khuc mua Xuan
TTITLE3=Khanh Ly - Em con nho mua Xuan
TTITLE4=Elvis Phuong - Xuan tuoi
TTITLE5=Ngoc Lan - Canh thiep dau Xuan
TTITLE6=Duy Khanh - Thu Xuan tren vung cao
TTITLE7=Thanh Tuyen - Mua Xuan la kho
TTITLE8=Duy Quang - Mua Xuan do co em
TTITLE9=Thanh Thuy - Mua Xuan tham nhau
EXTD=
EXTT0=
EXTT1=
EXTT2=
EXTT3=
EXTT4=
EXTT5=
EXTT6=
EXTT7=
EXTT8=
EXTT9=
PLAYORDER=
